<svg xmlns="http://www.w3.org/2000/svg" viewBox="0 0 24 24" fill="none" stroke="currentColor" stroke-width="1.8" stroke-linecap="round" stroke-linejoin="round">
<path d="M12.2 2c-.5.1-.9.3-1.3.6-.6.3-1 .8-1.4 1.3-.4.5-.7 1.1-1.1 1.6-.3.4-.7.7-1 1.2-.2.5-.3 1.1-.5 1.6-.2.6-.2 1.2-.3 1.8-.1.4-.3.8-.4 1.2-.2.5-.3 1-.2 1.5.1.5.2 1 .2 1.5 0 .6-.1 1.2.1 1.7.2.6.4 1.1.7 1.6.2.5.4 1.1.7 1.5.4.5.9.9 1.5 1.2.4.3.9.4 1.3.7.5.2.9.6 1.4.7.6.2 1.2.2 1.8.2.5 0 1-.2 1.5-.3.5-.1 1-.1 1.4-.3.5-.3.8-.7 1.2-1.1.2-.3.6-.6.7-1 .2-.3.2-.7.3-1.1.1-.5.2-.9.2-1.4 0-.5-.1-1-.2-1.5-.1-.4-.1-.8 0-1.2-.1-.5-.2-1-.4-1.5-.2-.4-.3-.9-.5-1.3-.3-.3-.6-.6-.8-.9-.3-.4-.5-.8-.9-1.2-.4-.3-.9-.5-1.3-.7-.3-.3-.7-.6-1.1-.8-.4-.2-.9-.2-1.3-.2"/>
<path d="M16.5 21.5c.2.2.4.4.6.7"/>
</svg>
